<svg width="1920" height="1078" viewBox="0 0 1920 1078" fill="none" xmlns="http://www.w3.org/2000/svg">
<g filter="url(#filter0_f_21_92)">
<path d="M431.5 535C217.007 485.955 16.4369 1086 16.4369 1086H3V0H1920L1571 282.5C1571 282.5 1009.62 716.658 814 725C618.383 733.342 622.419 578.655 431.5 535Z" fill="url(#paint0_linear_21_92)"/>
</g>
<path d="M422.191 543.979C192.258 503.244 -0.00503922 1077.16 -0.00503922 1077.16L-24.5486 0.289322L2015.36 -70.4756L1632.2 225.998C1632.2 225.998 1048.5 730.186 840.631 745.682C632.759 761.179 626.854 580.237 422.191 543.979Z" fill="url(#paint1_linear_21_92)" fill-opacity="0.2"/>
<path d="M422.191 543.979C192.258 503.244 -0.00503922 1077.16 -0.00503922 1077.16L-24.5486 0.289322L2015.36 -70.4756L1632.2 225.998C1632.2 225.998 1048.5 730.186 840.631 745.682C632.759 761.179 626.854 580.237 422.191 543.979Z" fill="url(#paint2_linear_21_92)"/>
<defs>
<filter id="filter0_f_21_92" x="-197" y="-200" width="2317" height="1486" filterUnits="userSpaceOnUse" color-interpolation-filters="sRGB">
<feFlood flood-opacity="0" result="BackgroundImageFix"/>
<feBlend mode="normal" in="SourceGraphic" in2="BackgroundImageFix" result="shape"/>
<feGaussianBlur stdDeviation="100" result="effect1_foregroundBlur_21_92"/>
</filter>
<linearGradient id="paint0_linear_21_92" x1="534.5" y1="-49.0001" x2="1655" y2="731.5" gradientUnits="userSpaceOnUse">
<stop stop-color="#F38B40"/>
<stop offset="0.0001" stop-color="#F34040"/>
<stop offset="1" stop-color="#FFB5B5"/>
</linearGradient>
<linearGradient id="paint1_linear_21_92" x1="1652.5" y1="56" x2="-69.5" y2="1018" gradientUnits="userSpaceOnUse">
<stop/>
<stop offset="1" stop-opacity="0"/>
</linearGradient>
<linearGradient id="paint2_linear_21_92" x1="533.5" y1="-250.046" x2="930.38" y2="1569.83" gradientUnits="userSpaceOnUse">
<stop stop-color="#FA7C54"/>
<stop offset="1" stop-color="#EC2C5A"/>
</linearGradient>
</defs>
</svg>
