<svg width="33" height="32" viewBox="0 0 33 32" fill="none" xmlns="http://www.w3.org/2000/svg">
<path d="M10.1389 24.7157H16.8049C16.8609 24.715 16.9164 24.7044 16.9686 24.6843C17.0208 24.6637 17.0689 24.6337 17.1104 24.596L22.753 19.262C22.7972 19.2212 22.8326 19.1719 22.8569 19.117C22.8791 19.0651 22.8919 19.0096 22.8948 18.9533V14.1482C22.8948 13.8872 22.6832 13.6757 22.4223 13.6757C22.1615 13.6757 21.9501 13.8872 21.9501 14.1482V18.446H19.0468C18.3269 18.4477 17.6371 18.7346 17.1282 19.2441C16.6194 19.7534 16.3334 20.4436 16.3325 21.1635V23.7707H10.1389C9.66952 23.7707 9.21939 23.5843 8.88761 23.2524C8.55566 22.9206 8.36914 22.4705 8.36914 22.0011V11.9534C8.36914 11.4838 8.55547 11.0334 8.88727 10.7011C9.21905 10.3686 9.66918 10.1815 10.1389 10.1806H17.9921C18.2529 10.1806 18.4644 9.9692 18.4644 9.70839C18.4644 9.44742 18.2529 9.23596 17.9921 9.23596H10.1389C9.41901 9.23762 8.72901 9.52469 8.22037 10.034C7.71156 10.5433 7.42531 11.2335 7.4245 11.9534V22.001C7.42533 22.7206 7.71157 23.4106 8.22054 23.9194C8.72935 24.4282 9.41918 24.7145 10.1389 24.7153L10.1389 24.7157ZM19.047 19.391H21.2512L17.2774 23.1476V21.1638C17.2774 20.6942 17.4637 20.2437 17.7955 19.9114C18.1273 19.579 18.5774 19.3918 19.047 19.391Z" fill="black"/>
<path d="M21.7709 8.14676C21.6457 8.14759 21.526 8.19729 21.4371 8.28522L14.2673 15.455C14.2163 15.5077 14.1775 15.5712 14.1539 15.6408L13.3069 18.2417C13.2537 18.4105 13.2986 18.595 13.4234 18.7203C13.5489 18.8453 13.7332 18.8902 13.9021 18.8368L16.503 17.9866V17.9868C16.5725 17.9632 16.636 17.9244 16.6887 17.8734L23.8555 10.7036C24.038 10.5184 24.038 10.2212 23.8555 10.036L22.1048 8.28519C22.0162 8.1966 21.8962 8.14689 21.771 8.14673L21.7709 8.14676ZM16.1028 17.1238L14.4969 17.6497L15.0228 16.0438L21.7705 9.28637L22.8536 10.3695L16.1028 17.1238Z" fill="black"/>
</svg>
