<svg width="33" height="32" viewBox="0 0 33 32" fill="none" xmlns="http://www.w3.org/2000/svg">
<path d="M10.8227 24.9567C10.766 24.9667 10.7078 24.9667 10.6509 24.9567C10.4752 24.8844 10.3604 24.7135 10.3595 24.5234V21.2215H8.46208C8.00831 21.2215 7.5733 21.0412 7.25229 20.7204C6.9315 20.3996 6.7514 19.9644 6.7514 19.5108V8.94004C6.7514 8.48627 6.9315 8.05126 7.25229 7.73046C7.57328 7.40946 8.0083 7.22937 8.46208 7.22937H20.6166C20.8517 7.25918 21.0281 7.45907 21.0281 7.69628C21.0281 7.93327 20.8517 8.13338 20.6166 8.16318H8.46208C8.04958 8.16318 7.71503 8.49752 7.71503 8.91023V19.5184C7.71503 19.7166 7.79382 19.9067 7.93389 20.0468C8.07397 20.1868 8.26386 20.2654 8.46208 20.2654H10.8227C11.0826 20.2654 11.2933 20.4761 11.2933 20.7361V23.2761L14.0352 20.4747C14.1212 20.3799 14.2432 20.3257 14.3712 20.3253H24.6506C24.8488 20.3253 25.0387 20.2467 25.1788 20.1064C25.319 19.9663 25.3976 19.7764 25.3976 19.5782V12.8921C25.3807 12.7581 25.4222 12.6232 25.5114 12.5219C25.6009 12.4204 25.7295 12.3624 25.8645 12.3624C25.9998 12.3624 26.1284 12.4204 26.2176 12.5219C26.3071 12.6232 26.3485 12.7581 26.3314 12.8921V19.5184C26.3296 19.9657 26.1526 20.3945 25.8385 20.713C25.5242 21.0313 25.0979 21.2141 24.6506 21.2218H14.5728L11.1663 24.7853C11.0798 24.8866 10.9558 24.9485 10.8226 24.9571L10.8227 24.9567Z" fill="black"/>
<path d="M18.0766 10.9868H9.26882C9.03349 10.957 8.85736 10.7569 8.85736 10.5199C8.85736 10.2829 9.03349 10.0828 9.26882 10.053H18.0766C18.2106 10.0361 18.3454 10.0776 18.4469 10.1668C18.5483 10.2562 18.6064 10.3848 18.6064 10.5199C18.6064 10.6552 18.5483 10.7838 18.4469 10.873C18.3454 10.9624 18.2106 11.0039 18.0766 10.9868Z" fill="black"/>
<path d="M15.305 13.8182H9.26882C9.03349 13.7884 8.85736 13.5883 8.85736 13.3513C8.85736 13.1141 9.03349 12.9142 9.26882 12.8844H15.305H15.3048C15.439 12.8673 15.5739 12.9088 15.6752 12.9982C15.7767 13.0874 15.8346 13.216 15.8346 13.3513C15.8346 13.4864 15.7767 13.615 15.6752 13.7044C15.5739 13.7936 15.439 13.8351 15.3048 13.8182H15.305Z" fill="black"/>
<path d="M15.305 16.6421H9.26882C9.03349 16.6123 8.85736 16.4122 8.85736 16.1752C8.85736 15.9382 9.03349 15.7381 9.26882 15.7083H15.305H15.3048C15.439 15.6914 15.5739 15.7327 15.6752 15.8221C15.7767 15.9115 15.8346 16.0401 15.8346 16.1752C15.8346 16.3103 15.7767 16.4389 15.6752 16.5283C15.5739 16.6177 15.439 16.6592 15.3048 16.6421H15.305Z" fill="black"/>
<path d="M17.2398 16.6421C17.0816 16.6454 16.9328 16.5676 16.8451 16.4359C16.7571 16.3042 16.7427 16.137 16.8065 15.9921L17.9569 13.1682H17.9571C17.9838 13.105 18.0247 13.0487 18.0766 13.0039L23.911 7.16947C24.0938 6.99104 24.3856 6.99104 24.5684 7.16947L26.2941 8.91015C26.385 8.99519 26.4365 9.11421 26.4361 9.23886C26.434 9.36267 26.3829 9.48086 26.2941 9.56757L20.6091 15.2452C20.5676 15.2906 20.5165 15.3262 20.4596 15.3498L17.4191 16.6198C17.3612 16.6378 17.3005 16.6453 17.2399 16.6421L17.2398 16.6421ZM18.8236 13.609L18.0765 15.3124L20.0115 14.498L25.2857 9.26867L24.2247 8.17792L18.8236 13.609Z" fill="black"/>
</svg>
