<svg width="33" height="32" viewBox="0 0 33 32" fill="none" xmlns="http://www.w3.org/2000/svg">
<mask id="mask0_68_849" style="mask-type:luminance" maskUnits="userSpaceOnUse" x="5" y="5" width="22" height="22">
<path d="M5.93945 5.92383H26.0918V26.0762H5.93945V5.92383Z" fill="white"/>
</mask>
<g mask="url(#mask0_68_849)">
<path d="M22.4935 5.92383C20.5148 5.92383 18.8951 7.54349 18.8951 9.52221C18.8951 9.84468 18.9417 10.1557 19.0223 10.4536L12.364 13.7832C11.7034 12.9444 10.6824 12.4015 9.53819 12.4015C7.55946 12.4015 5.9398 14.0212 5.9398 15.9999C5.9398 17.9786 7.55946 19.5983 9.53819 19.5983C10.6811 19.5983 11.7027 19.0554 12.3633 18.2171L19.0225 21.5468C18.9425 21.8446 18.8953 22.1551 18.8953 22.4776C18.8953 24.4563 20.515 26.076 22.4937 26.076C24.4724 26.076 26.0921 24.4563 26.0921 22.4776C26.0921 20.4989 24.4724 18.8792 22.4937 18.8792C21.3494 18.8792 20.3286 19.4221 19.6679 20.2609L13.0096 16.9313C13.0902 16.6334 13.1368 16.3223 13.1368 15.9999C13.1368 15.6774 13.0902 15.3669 13.0096 15.0691L19.6688 11.7394C20.3293 12.5777 21.3503 13.1206 22.4939 13.1206C24.4726 13.1206 26.0923 11.5009 26.0923 9.52221C26.0923 7.54349 24.4726 5.92383 22.4939 5.92383H22.4935ZM22.4935 7.36349C23.6945 7.36349 24.6529 8.32191 24.6529 9.52289C24.6529 10.7239 23.6945 11.6823 22.4935 11.6823C21.2925 11.6823 20.3341 10.7239 20.3341 9.52289C20.3341 8.32191 21.2925 7.36349 22.4935 7.36349ZM9.53817 13.8405C10.7392 13.8405 11.6976 14.7989 11.6976 15.9999C11.6976 17.2009 10.7392 18.1593 9.53817 18.1593C8.3372 18.1593 7.37877 17.2009 7.37877 15.9999C7.37877 14.7989 8.3372 13.8405 9.53817 13.8405ZM22.4935 20.3184C23.6945 20.3184 24.6529 21.2768 24.6529 22.4778C24.6529 23.6788 23.6945 24.6372 22.4935 24.6372C21.2925 24.6372 20.3341 23.6788 20.3341 22.4778C20.3341 21.2768 21.2925 20.3184 22.4935 20.3184Z" fill="black"/>
</g>
</svg>
